<?xml version="1.0" encoding="UTF-8"?>
<!-- Generator: Adobe Illustrator 22.1.0, SVG Export Plug-In . SVG Version: 6.00 Build 0)  -->
<svg version="1.1" id="Capa_1" xmlns="http://www.w3.org/2000/svg" xmlns:xlink="http://www.w3.org/1999/xlink" x="0px" y="0px" viewBox="0 0 630 360" style="enable-background:new 0 0 630 360;" xml:space="preserve">
<style type="text/css">
	.st0{fill:#CC9D00;}
	.st1{fill:#B58E12;}
	.st2{fill:#FCF4E0;}
	.st3{fill:#F4D438;}
	.st4{fill:#FFFFFF;}
	.st5{fill:#FFE6A2;}
	.st6{fill:#F9EAC5;}
	.st7{fill:#FEDD00;}
	.st8{fill:#E2BC47;}
</style>
<title>Mesa de trabajo 2 copia 2</title>
<g id="Layer_1">
	<path class="st0" d="M628.3,321.4H1.7c-0.5,0-0.9,0.4-0.9,0.9c0,0.5,0.4,0.9,0.9,0.9h626.6c0.5,0,0.9-0.4,0.9-0.9   C629.1,321.8,628.8,321.4,628.3,321.4z"/>
	<path class="st1" d="M540.7,339.2h-63.5c-0.5,0-0.9,0.4-0.9,0.9c0,0.5,0.4,0.9,0.9,0.9h63.5c0.5,0,0.9-0.4,0.9-0.9   C541.6,339.6,541.2,339.2,540.7,339.2z"/>
	<path class="st1" d="M454.9,339.2h-23.2c-0.5,0-0.9,0.4-0.9,0.9c0,0.5,0.4,0.9,0.9,0.9h23.2c0.5,0,0.9-0.4,0.9-0.9   C455.8,339.6,455.4,339.2,454.9,339.2z"/>
	<path class="st1" d="M407.7,339.2H253.3c-0.5,0-0.9,0.4-0.9,0.9c0,0.5,0.4,0.9,0.9,0.9h154.4c0.5,0,0.9-0.4,0.9-0.9   C408.6,339.6,408.2,339.2,407.7,339.2C407.7,339.2,407.7,339.2,407.7,339.2z"/>
	<path class="st1" d="M231,339.2H60.2c-0.5,0-0.9,0.4-0.9,0.9c0,0.5,0.4,0.9,0.9,0.9c0,0,0,0,0,0H231c0.5,0,0.9-0.4,0.9-0.9   C231.9,339.6,231.5,339.2,231,339.2z"/>
	<path class="st1" d="M443.8,357h-71.2c-0.5,0.1-0.8,0.5-0.8,1c0,0.4,0.4,0.7,0.8,0.8h71.2c0.5,0.1,0.9-0.3,1-0.8   c0.1-0.5-0.3-0.9-0.8-1C443.9,357,443.8,357,443.8,357z"/>
	<path class="st1" d="M346,357H167.5c-0.5-0.1-0.9,0.3-1,0.8c-0.1,0.5,0.3,0.9,0.8,1c0.1,0,0.1,0,0.2,0H346c0.5-0.1,0.8-0.5,0.8-1   C346.7,357.3,346.4,357,346,357z"/>
	<path class="st1" d="M146,357h-23.1c-0.5,0.1-0.8,0.5-0.8,1c0,0.4,0.4,0.7,0.8,0.8H146c0.5-0.1,0.8-0.5,0.8-1   C146.7,357.3,146.4,357,146,357z"/>
	<polygon class="st2" points="336.5,245.6 316.8,245.6 278.4,245.6 249.9,313.9 316.8,313.9 336.5,313.9 403.4,313.9 374.8,245.6     "/>
	<path class="st1" d="M376.5,244.9c-0.3-0.7-1-1.1-1.7-1.1h-96.4c-0.8,0-1.4,0.4-1.7,1.1l-28.5,68.2c-0.4,0.9,0,2,1,2.4   c0.2,0.1,0.5,0.1,0.7,0.1h153.5c1,0,1.9-0.8,1.9-1.9c0-0.2,0-0.5-0.1-0.7L376.5,244.9z M336.4,313.9h-86.6l28.5-68.3h96.4   l28.5,68.2L336.4,313.9z"/>
	<polygon class="st3" points="336.5,245.6 316.8,245.6 278.4,245.6 265.4,276.7 387.8,276.7 374.8,245.6  "/>
	<path class="st2" d="M405.4,295.5H247.8c-4.5,0-8.2,4.4-8.2,9.9v16.8h174v-16.8C413.6,299.9,409.9,295.5,405.4,295.5z"/>
	<path class="st1" d="M405.4,294.6H247.8c-5,0-9.1,4.9-9.1,10.8v16.8c0,0.5,0.4,0.9,0.9,0.9h174c0.5,0,0.9-0.4,0.9-0.9v-16.8   C414.5,299.4,410.4,294.6,405.4,294.6z M412.7,321.3H240.6v-15.9c0-5,3.2-9,7.2-9h157.6c4,0,7.2,4,7.2,9V321.3z"/>
	<path class="st4" d="M493.2,3H160c-6.8,0-12.2,5.5-12.2,12.2l0,0v230.3c0,6.8,5.4,12.3,12.2,12.3c0,0,0,0,0.1,0h333.2   c6.8,0,12.2-5.5,12.3-12.2c0,0,0,0,0,0V15.3C505.5,8.5,500,3,493.2,3z"/>
	<path class="st0" d="M493.2,1.3H160c-7.7,0-14,6.3-14,14l0,0v230.3c0,7.7,6.3,14,14,14h333.2c7.7,0,14-6.3,14-14V15.3   C507.2,7.6,501,1.3,493.2,1.3L493.2,1.3z M505.5,39.8v205.8c0,6.8-5.5,12.2-12.2,12.2l0,0H160c-6.8,0-12.2-5.5-12.2-12.2   c0,0,0,0,0,0V15.3C147.7,8.5,153.2,3,160,3l0,0h333.2c6.8,0,12.2,5.5,12.2,12.2V39.8z"/>
	<path class="st2" d="M492.6,7.7H160.6c-4.1,0-7.5,3.4-7.5,7.5v230.6c0,4.1,3.4,7.5,7.5,7.5l0,0h331.9c4.1,0,7.5-3.3,7.5-7.5   c0,0,0,0,0,0V15.2C500.1,11,496.7,7.7,492.6,7.7z"/>
	<path class="st1" d="M492.6,5.8H160.6c-5.2,0-9.4,4.2-9.4,9.4v230.6c0,5.2,4.2,9.4,9.4,9.4h331.9c5.2,0,9.4-4.2,9.4-9.4V15.2   C501.9,10,497.7,5.8,492.6,5.8z M500.1,43v202.8c0,4.1-3.4,7.5-7.5,7.5c0,0,0,0,0,0H160.6c-4.1,0-7.5-3.4-7.5-7.5l0,0V15.2   c0-4.1,3.4-7.5,7.5-7.5h331.9c4.1,0,7.5,3.4,7.5,7.5V43z"/>
	<rect x="169" y="22.1" class="st4" width="315.1" height="207"/>
	<path class="st0" d="M484.2,21.2H169c-0.5,0-0.9,0.4-0.9,0.9c0,0,0,0,0,0v207c0,0.5,0.4,0.9,0.9,0.9h315.1c0.5,0,0.9-0.4,0.9-0.9   v-207C485,21.6,484.7,21.2,484.2,21.2z M483.3,228.2H169.9V23h313.4V228.2z"/>
	<rect x="169" y="22.1" class="st5" width="315.1" height="27.7"/>
	<path class="st0" d="M484.2,21.2H169c-0.5,0-0.9,0.4-0.9,0.9c0,0,0,0,0,0v27.7c0,0.5,0.4,0.9,0.8,0.9c0,0,0,0,0,0h315.1   c0.5,0,0.9-0.4,0.9-0.8c0,0,0,0,0,0V22.1C485,21.6,484.7,21.2,484.2,21.2z M483.3,48.9H169.9v-26h313.4V48.9z"/>
	<path class="st3" d="M336.8,236.4h-20.4c-2,0-3.6,1.6-3.6,3.6c0,2,1.6,3.6,3.6,3.6h20.4c2,0,3.6-1.6,3.6-3.6   C340.4,238,338.8,236.4,336.8,236.4z"/>
	<path class="st1" d="M336.8,234.6h-20.4c-3,0.1-5.3,2.7-5.2,5.7c0.1,2.8,2.4,5.1,5.2,5.2h20.4c3,0.1,5.5-2.2,5.7-5.2   s-2.2-5.5-5.2-5.7C337.1,234.6,337,234.6,336.8,234.6z M336.8,243.6h-20.4c-2,0-3.6-1.6-3.6-3.6c0-2,1.6-3.6,3.6-3.6h20.4   c2,0,3.6,1.6,3.6,3.6C340.4,242,338.8,243.6,336.8,243.6z"/>
	<rect x="169" y="42.1" class="st5" width="315.1" height="15.8"/>
	<path class="st1" d="M484.2,41.2H169c-0.5,0-0.9,0.4-0.9,0.9v15.8c0,0.5,0.4,0.9,0.9,0.9h315.1c0.5,0,0.9-0.4,0.9-0.9l0,0V42.1   C485.1,41.6,484.7,41.2,484.2,41.2z M483.2,57H170V43h313.2V57z"/>
	<circle class="st6" cx="190.3" cy="33.3" r="2.4"/>
	<path class="st1" d="M190.3,29c-2.4,0-4.3,1.9-4.3,4.3s1.9,4.3,4.3,4.3c2.4,0,4.3-1.9,4.3-4.3c0,0,0,0,0,0   C194.6,30.9,192.7,29,190.3,29z M190.3,35.7c-1.3,0-2.4-1.1-2.4-2.4c0-1.3,1.1-2.4,2.4-2.4s2.4,1.1,2.4,2.4   C192.8,34.6,191.7,35.7,190.3,35.7L190.3,35.7z"/>
	<circle class="st7" cx="202.7" cy="33.3" r="2.4"/>
	<path class="st0" d="M202.7,29.1c-2.3,0-4.2,1.9-4.2,4.2c0,2.3,1.9,4.2,4.2,4.2c2.3,0,4.2-1.9,4.2-4.2c0,0,0,0,0,0   C206.9,31,205,29.1,202.7,29.1z M202.7,35.7c-1.3,0-2.4-1.1-2.4-2.4c0-1.3,1.1-2.4,2.4-2.4s2.4,1.1,2.4,2.4   C205.1,34.6,204,35.7,202.7,35.7C202.7,35.7,202.7,35.7,202.7,35.7L202.7,35.7z"/>
	<circle class="st4" cx="178" cy="33.3" r="2.4"/>
	<path class="st0" d="M178,29.1c-2.3,0-4.2,1.9-4.2,4.2c0,2.3,1.9,4.2,4.2,4.2c2.3,0,4.2-1.9,4.2-4.2c0,0,0,0,0,0   C182.2,31,180.3,29.1,178,29.1z M178,35.7c-1.3,0-2.4-1.1-2.4-2.4c0-1.3,1.1-2.4,2.4-2.4s2.4,1.1,2.4,2.4   C180.4,34.6,179.3,35.7,178,35.7C178,35.7,178,35.7,178,35.7L178,35.7z"/>
	<path class="st4" d="M191.2,46.1c-2.5,0-4.5,2-4.5,4.5c0,2.5,2,4.5,4.5,4.5c2.5,0,4.5-2,4.5-4.5c0,0,0,0,0,0   C195.7,48.1,193.7,46.1,191.2,46.1z M191.2,53.3c-1.5,0-2.7-1.3-2.7-2.8c0-1.5,1.3-2.7,2.8-2.7c1.5,0,2.7,1.2,2.7,2.7   C194,52.1,192.8,53.3,191.2,53.3C191.3,53.3,191.2,53.3,191.2,53.3z"/>
	<path class="st4" d="M177.4,46.1c-2.5,0-4.5,2-4.5,4.5s2,4.5,4.5,4.5s4.5-2,4.5-4.5C181.9,48.1,179.9,46.1,177.4,46.1L177.4,46.1z    M177.4,53.3c-1.5,0-2.7-1.2-2.7-2.7s1.2-2.7,2.7-2.7c1.5,0,2.7,1.2,2.7,2.7c0,0,0,0,0,0C180.1,52.1,178.9,53.3,177.4,53.3   C177.4,53.3,177.4,53.3,177.4,53.3z"/>
	<path class="st4" d="M470,47.9H204c-1.5,0.1-2.7,1.4-2.6,2.9c0.1,1.4,1.2,2.5,2.6,2.6h266c1.5,0.1,2.8-1.1,2.9-2.6   c0.1-1.5-1.1-2.8-2.6-2.9C470.2,47.9,470.1,47.9,470,47.9z"/>
	<path class="st0" d="M470,46.1H204c-2.5-0.1-4.6,1.8-4.7,4.3c-0.1,2.5,1.8,4.6,4.3,4.7c0.1,0,0.3,0,0.4,0h266   c2.5,0.1,4.6-1.8,4.7-4.3c0.1-2.5-1.8-4.6-4.3-4.7C470.3,46.1,470.1,46.1,470,46.1L470,46.1z M470,53.3H204   c-1.5-0.1-2.7-1.4-2.6-2.9c0.1-1.4,1.2-2.5,2.6-2.6h266c1.5-0.1,2.8,1.1,2.9,2.6c0.1,1.5-1.1,2.8-2.6,2.9   C470.2,53.3,470.1,53.3,470,53.3z"/>
	<path class="st5" d="M399.9,30.9h-48.2c-3.5,0-6.6,2.4-7.4,5.8l-1.4,5.4h65.8l-1.4-5.4C406.4,33.3,403.4,30.9,399.9,30.9z"/>
	<path class="st0" d="M408.1,36.5c-1-3.8-4.4-6.4-8.3-6.4h-48.2c-3.9,0-7.3,2.6-8.3,6.4l-1.4,5.4c-0.1,0.3,0,0.5,0.1,0.7   c0.2,0.2,0.4,0.3,0.7,0.3h65.8c0.3,0,0.5-0.1,0.7-0.3c0.2-0.2,0.2-0.5,0.2-0.7L408.1,36.5z M344,41.2l1.1-4.3   c0.8-3,3.5-5.1,6.6-5.1h48.2c3.1,0,5.8,2.1,6.6,5.1l1.1,4.3H344z"/>
	<path class="st5" d="M337.1,30.9h-48.2c-3.5,0-6.6,2.4-7.4,5.8l-1.4,5.4H346l-1.4-5.4C343.8,33.3,340.7,30.9,337.1,30.9z"/>
	<path class="st0" d="M345.4,36.5c-1-3.8-4.4-6.4-8.3-6.4h-48.2c-3.9,0-7.3,2.6-8.3,6.4l-1.4,5.4c-0.1,0.3,0,0.5,0.1,0.7   c0.2,0.2,0.4,0.3,0.7,0.3H346c0.3,0,0.5-0.1,0.7-0.3c0.2-0.2,0.2-0.5,0.1-0.7L345.4,36.5z M281.2,41.2l1.1-4.3   c0.8-3,3.5-5.1,6.6-5.1h48.2c3.1,0,5.8,2.1,6.6,5.1l1.1,4.3H281.2z"/>
	<path class="st6" d="M274.4,30.9h-48.2c-3.5,0-6.6,2.4-7.4,5.8l-1.4,5.4h65.8l-1.4-5.4C281,33.3,277.9,30.9,274.4,30.9z"/>
	<path class="st1" d="M282.8,36.4c-1-3.8-4.4-6.5-8.3-6.5h-48.2c-3.9,0-7.4,2.7-8.3,6.5l-1.4,5.4c-0.1,0.3,0,0.6,0.2,0.8   c0.2,0.2,0.4,0.4,0.7,0.4h65.8c0.3,0,0.6-0.1,0.7-0.4c0.2-0.2,0.2-0.5,0.2-0.8L282.8,36.4z M218.6,41.2l1.1-4.3   c0.8-3,3.5-5.1,6.5-5.1h48.2c3.1,0,5.8,2.1,6.5,5.1l1.1,4.3H218.6z"/>
	<rect x="189.7" y="135" class="st4" width="80.1" height="20.2"/>
	<path class="st0" d="M269.8,134.1h-80.1c-0.5,0-0.9,0.4-0.9,0.8c0,0,0,0,0,0v20.2c0,0.5,0.4,0.9,0.9,0.9h80.1   c0.5,0,0.9-0.4,0.9-0.9V135C270.7,134.5,270.3,134.1,269.8,134.1C269.8,134.1,269.8,134.1,269.8,134.1z M269,154.3h-78.5v-18.5H269   V154.3z"/>
	<path class="st0" d="M269.8,168.7h-80.1c-0.5-0.1-0.9,0.3-1,0.8c-0.1,0.5,0.3,0.9,0.8,1c0.1,0,0.1,0,0.2,0h80.1   c0.5,0.1,0.9-0.3,1-0.8c0.1-0.5-0.3-0.9-0.8-1C269.9,168.7,269.9,168.7,269.8,168.7z"/>
	<path class="st0" d="M269.8,177h-80.1c-0.5,0-0.9,0.4-0.9,0.9c0,0.5,0.4,0.9,0.9,0.9c0,0,0,0,0,0h80.1c0.5,0,0.9-0.4,0.9-0.9   C270.7,177.4,270.3,177,269.8,177z"/>
	<path class="st0" d="M269.8,185.3h-80.1c-0.5-0.1-0.9,0.3-1,0.8c-0.1,0.5,0.3,0.9,0.8,1c0.1,0,0.1,0,0.2,0h80.1   c0.5,0.1,0.9-0.3,1-0.8c0.1-0.5-0.3-0.9-0.8-1C269.9,185.3,269.9,185.3,269.8,185.3z"/>
	<path class="st0" d="M241.5,193.5h-51.8c-0.5-0.1-0.9,0.3-1,0.8c-0.1,0.5,0.3,0.9,0.8,1c0.1,0,0.1,0,0.2,0h51.8   c0.5-0.1,0.8-0.5,0.8-1C242.2,193.9,241.9,193.6,241.5,193.5z"/>
	<rect x="286.1" y="85.6" class="st6" width="81.1" height="36"/>
	<path class="st1" d="M367.2,84.7h-81.1c-0.5,0-0.9,0.4-0.9,0.9v36c0,0.5,0.4,0.9,0.9,0.9h81.1c0.5,0,0.9-0.4,0.9-0.9v-36   C368.1,85.1,367.7,84.7,367.2,84.7z M366.2,120.6H287V86.6h79.2L366.2,120.6z"/>
	<rect x="286.1" y="135" class="st4" width="80.1" height="20.2"/>
	<path class="st0" d="M366.2,134.1h-80.1c-0.5,0-0.9,0.4-0.9,0.8c0,0,0,0,0,0v20.2c0,0.5,0.4,0.9,0.9,0.9h80.1   c0.5,0,0.9-0.4,0.9-0.9V135C367.1,134.5,366.7,134.1,366.2,134.1C366.2,134.1,366.2,134.1,366.2,134.1z M365.3,154.3h-78.4v-18.5   h78.4V154.3z"/>
	<path class="st0" d="M366.2,168.7h-80.1c-0.5-0.1-0.9,0.3-1,0.8c-0.1,0.5,0.3,0.9,0.8,1c0.1,0,0.1,0,0.2,0h80.1   c0.5,0.1,0.9-0.3,1-0.8c0.1-0.5-0.3-0.9-0.8-1C366.3,168.7,366.3,168.7,366.2,168.7z"/>
	<path class="st0" d="M366.2,177h-80.1c-0.5,0-0.9,0.4-0.9,0.9c0,0.5,0.4,0.9,0.9,0.9h80.1c0.5,0,0.9-0.4,0.9-0.9   C367.1,177.4,366.7,177,366.2,177z"/>
	<path class="st0" d="M366.2,185.3h-80.1c-0.5-0.1-0.9,0.3-1,0.8c-0.1,0.5,0.3,0.9,0.8,1c0.1,0,0.1,0,0.2,0h80.1   c0.5,0.1,0.9-0.3,1-0.8c0.1-0.5-0.3-0.9-0.8-1C366.3,185.3,366.3,185.3,366.2,185.3z"/>
	<path class="st0" d="M337.8,193.5h-51.8c-0.5-0.1-0.9,0.3-1,0.8c-0.1,0.5,0.3,0.9,0.8,1c0.1,0,0.1,0,0.2,0h51.8   c0.5,0.1,0.9-0.3,1-0.8c0.1-0.5-0.3-0.9-0.8-1C338,193.5,337.9,193.5,337.8,193.5z"/>
	<path class="st6" d="M463.5,118.7c-0.5,0-0.9,0.4-0.9,0.9v1.1h-1.1c-0.5-0.1-0.9,0.3-1,0.8c-0.1,0.5,0.3,0.9,0.8,1   c0.1,0,0.1,0,0.2,0h2c0.5,0,0.9-0.4,0.9-0.9v-2C464.4,119.1,464,118.7,463.5,118.7L463.5,118.7z"/>
	<path class="st6" d="M416.9,120.7h-4.1c-0.5,0.1-0.8,0.5-0.8,1c0,0.4,0.4,0.7,0.8,0.8h4.1c0.5,0.1,0.9-0.3,1-0.8   c0.1-0.5-0.3-0.9-0.8-1C417,120.7,417,120.7,416.9,120.7z"/>
	<path class="st6" d="M400.7,120.7h-4.1c-0.5-0.1-0.9,0.3-1,0.8c-0.1,0.5,0.3,0.9,0.8,1c0.1,0,0.1,0,0.2,0h4.1   c0.5-0.1,0.8-0.5,0.8-1C401.4,121.1,401.1,120.7,400.7,120.7z"/>
	<path class="st6" d="M408.8,120.7h-4c-0.5-0.1-0.9,0.3-1,0.8c-0.1,0.5,0.3,0.9,0.8,1c0.1,0,0.1,0,0.2,0h4c0.5,0.1,0.9-0.3,1-0.8   c0.1-0.5-0.3-0.9-0.8-1C408.9,120.7,408.8,120.7,408.8,120.7z"/>
	<path class="st6" d="M392.5,120.7h-4.1c-0.5,0.1-0.8,0.5-0.8,1c0,0.4,0.4,0.7,0.8,0.8h4.1c0.5,0.1,0.9-0.3,1-0.8   c0.1-0.5-0.3-0.9-0.8-1C392.7,120.7,392.6,120.7,392.5,120.7z"/>
	<path class="st6" d="M457.5,120.7h-4.1c-0.5,0.1-0.8,0.5-0.8,1c0,0.4,0.4,0.7,0.8,0.8h4.1c0.5,0.1,0.9-0.3,1-0.8   c0.1-0.5-0.3-0.9-0.8-1C457.6,120.7,457.5,120.7,457.5,120.7z"/>
	<path class="st6" d="M425,120.7h-4c-0.5-0.1-0.9,0.3-1,0.8c-0.1,0.5,0.3,0.9,0.8,1c0.1,0,0.1,0,0.2,0h4c0.5-0.1,0.8-0.5,0.8-1   C425.7,121.1,425.4,120.7,425,120.7z"/>
	<path class="st6" d="M449.4,120.7h-4.1c-0.5-0.1-0.9,0.3-1,0.8c-0.1,0.5,0.3,0.9,0.8,1c0.1,0,0.1,0,0.2,0h4.1   c0.5-0.1,0.8-0.5,0.8-1C450.1,121.1,449.8,120.7,449.4,120.7z"/>
	<path class="st6" d="M441.2,120.7h-4.1c-0.5-0.1-0.9,0.3-1,0.8c-0.1,0.5,0.3,0.9,0.8,1c0.1,0,0.1,0,0.2,0h4.1   c0.5,0.1,0.9-0.3,1-0.8c0.1-0.5-0.3-0.9-0.8-1C441.4,120.7,441.3,120.7,441.2,120.7z"/>
	<path class="st6" d="M433.1,120.7h-4.1c-0.5,0.1-0.8,0.5-0.8,1c0,0.4,0.4,0.7,0.8,0.8h4.1c0.5,0.1,0.9-0.3,1-0.8   c0.1-0.5-0.3-0.9-0.8-1C433.3,120.7,433.2,120.7,433.1,120.7z"/>
	<path class="st6" d="M384.4,120.7h-1.1v-1.1c0.1-0.5-0.3-0.9-0.8-1c-0.5-0.1-0.9,0.3-1,0.8c0,0.1,0,0.1,0,0.2v2   c0,0.5,0.4,0.9,0.9,0.9h2c0.5-0.1,0.8-0.5,0.8-1C385.2,121.1,384.8,120.8,384.4,120.7L384.4,120.7z"/>
	<path class="st6" d="M382.4,104.5c-0.5,0-0.9,0.4-0.9,0.9v3.5c0.1,0.5,0.5,0.8,1,0.8c0.4,0,0.7-0.4,0.8-0.8v-3.5   C383.3,104.9,382.9,104.5,382.4,104.5z"/>
	<path class="st6" d="M382.4,111.6c-0.5,0-0.9,0.4-0.9,0.9v3.5c0.1,0.5,0.5,0.8,1,0.8c0.4,0,0.7-0.4,0.8-0.8v-3.5   C383.3,112,382.9,111.6,382.4,111.6z"/>
	<path class="st6" d="M382.4,90.3c-0.5,0-0.9,0.4-0.9,0.9v3.5c0.1,0.5,0.5,0.8,1,0.8c0.4,0,0.7-0.4,0.8-0.8v-3.5   C383.3,90.7,382.9,90.3,382.4,90.3z"/>
	<path class="st6" d="M382.4,97.4c-0.5,0-0.9,0.4-0.9,0.9v3.5c0.1,0.5,0.5,0.8,1,0.8c0.4,0,0.7-0.4,0.8-0.8v-3.5   C383.3,97.8,382.9,97.4,382.4,97.4z"/>
	<path class="st6" d="M384.4,84.8h-2c-0.5,0-0.9,0.4-0.9,0.9v2c0.1,0.5,0.5,0.8,1,0.8c0.4,0,0.7-0.4,0.8-0.8v-1.1h1.1   c0.5-0.1,0.8-0.5,0.8-1C385.2,85.1,384.8,84.8,384.4,84.8L384.4,84.8z"/>
	<path class="st6" d="M408.8,84.8h-4c-0.5-0.1-0.9,0.3-1,0.8c-0.1,0.5,0.3,0.9,0.8,1c0.1,0,0.1,0,0.2,0h4c0.5,0.1,0.9-0.3,1-0.8   c0.1-0.5-0.3-0.9-0.8-1C408.9,84.7,408.8,84.7,408.8,84.8z"/>
	<path class="st6" d="M416.9,84.8h-4.1c-0.5,0.1-0.8,0.5-0.8,1c0,0.4,0.4,0.7,0.8,0.8h4.1c0.5,0.1,0.9-0.3,1-0.8   c0.1-0.5-0.3-0.9-0.8-1C417,84.7,417,84.7,416.9,84.8z"/>
	<path class="st6" d="M400.7,84.8h-4.1c-0.5-0.1-0.9,0.3-1,0.8c-0.1,0.5,0.3,0.9,0.8,1c0.1,0,0.1,0,0.2,0h4.1c0.5-0.1,0.8-0.5,0.8-1   C401.4,85.1,401.1,84.8,400.7,84.8z"/>
	<path class="st6" d="M392.5,84.8h-4.1c-0.5,0.1-0.8,0.5-0.8,1c0,0.4,0.4,0.7,0.8,0.8h4.1c0.5,0.1,0.9-0.3,1-0.8   c0.1-0.5-0.3-0.9-0.8-1C392.7,84.7,392.6,84.7,392.5,84.8z"/>
	<path class="st6" d="M425,84.8h-4c-0.5-0.1-0.9,0.3-1,0.8c-0.1,0.5,0.3,0.9,0.8,1c0.1,0,0.1,0,0.2,0h4c0.5-0.1,0.8-0.5,0.8-1   C425.7,85.1,425.4,84.8,425,84.8z"/>
	<path class="st6" d="M457.5,84.8h-4.1c-0.5,0.1-0.8,0.5-0.8,1c0,0.4,0.4,0.7,0.8,0.8h4.1c0.5,0.1,0.9-0.3,1-0.8   c0.1-0.5-0.3-0.9-0.8-1C457.6,84.7,457.5,84.7,457.5,84.8z"/>
	<path class="st6" d="M433.1,84.8h-4.1c-0.5,0.1-0.8,0.5-0.8,1c0,0.4,0.4,0.7,0.8,0.8h4.1c0.5,0.1,0.9-0.3,1-0.8   c0.1-0.5-0.3-0.9-0.8-1C433.3,84.7,433.2,84.7,433.1,84.8z"/>
	<path class="st6" d="M449.4,84.8h-4.1c-0.5-0.1-0.9,0.3-1,0.8c-0.1,0.5,0.3,0.9,0.8,1c0.1,0,0.1,0,0.2,0h4.1c0.5-0.1,0.8-0.5,0.8-1   C450.1,85.1,449.8,84.8,449.4,84.8z"/>
	<path class="st6" d="M441.2,84.8h-4.1c-0.5-0.1-0.9,0.3-1,0.8c-0.1,0.5,0.3,0.9,0.8,1c0.1,0,0.1,0,0.2,0h4.1c0.5,0.1,0.9-0.3,1-0.8   c0.1-0.5-0.3-0.9-0.8-1C441.4,84.7,441.3,84.7,441.2,84.8z"/>
	<path class="st6" d="M463.5,84.8h-2c-0.5-0.1-0.9,0.3-1,0.8c-0.1,0.5,0.3,0.9,0.8,1c0.1,0,0.1,0,0.2,0h1.1v1.1   c0,0.5,0.4,0.9,0.9,0.9c0.5,0,0.9-0.4,0.9-0.9v-2C464.4,85.1,464,84.8,463.5,84.8z"/>
	<path class="st6" d="M463.5,104.5c-0.5,0-0.9,0.4-0.9,0.9v3.5c0,0.5,0.4,0.9,0.9,0.9c0.5,0,0.9-0.4,0.9-0.9v-3.5   C464.4,104.9,464,104.5,463.5,104.5z"/>
	<path class="st6" d="M463.5,111.6c-0.5,0-0.9,0.4-0.9,0.9v3.5c0,0.5,0.4,0.9,0.9,0.9c0.5,0,0.9-0.4,0.9-0.9v-3.5   C464.4,112,464,111.6,463.5,111.6z"/>
	<path class="st6" d="M463.5,97.4c-0.5,0-0.9,0.4-0.9,0.9v3.5c0,0.5,0.4,0.9,0.9,0.9c0.5,0,0.9-0.4,0.9-0.9v-3.5   C464.4,97.8,464,97.4,463.5,97.4z"/>
	<path class="st6" d="M463.5,90.3c-0.5,0-0.9,0.4-0.9,0.9v3.5c0,0.5,0.4,0.9,0.9,0.9c0.5,0,0.9-0.4,0.9-0.9v-3.5   C464.4,90.7,464,90.3,463.5,90.3z"/>
	<path class="st6" d="M462.6,152.3c-0.5,0-0.9,0.4-0.9,0.9c0,0,0,0,0,0v1.1h-1.1c-0.5,0-0.9,0.4-0.9,0.9c0,0.5,0.4,0.9,0.9,0.9h2   c0.5,0,0.9-0.4,0.9-0.9v-2C463.4,152.7,463.1,152.3,462.6,152.3z"/>
	<path class="st6" d="M408.5,154.3h-4c-0.5,0-0.9,0.4-0.9,0.9c0,0.5,0.4,0.9,0.9,0.9h4c0.5,0,0.9-0.4,0.9-0.9   C409.3,154.7,409,154.3,408.5,154.3z"/>
	<path class="st6" d="M416.5,154.3h-4c-0.5,0-0.9,0.4-0.9,0.9c0,0.5,0.4,0.9,0.9,0.9h4c0.5,0,0.9-0.4,0.9-0.9   C417.4,154.7,417,154.3,416.5,154.3z"/>
	<path class="st6" d="M400.5,154.3h-4c-0.5,0-0.9,0.4-0.9,0.9c0,0.5,0.4,0.9,0.9,0.9c0,0,0,0,0,0h4c0.5,0,0.9-0.4,0.9-0.9   C401.3,154.7,400.9,154.3,400.5,154.3z"/>
	<path class="st6" d="M392.5,154.3h-4c-0.5,0-0.9,0.4-0.9,0.9c0,0.5,0.4,0.9,0.9,0.9h4c0.5,0,0.9-0.4,0.9-0.9   C393.3,154.7,392.9,154.3,392.5,154.3z"/>
	<path class="st6" d="M424.5,154.3h-4c-0.5,0-0.9,0.4-0.9,0.9c0,0.5,0.4,0.9,0.9,0.9h4c0.5,0,0.9-0.4,0.9-0.9   C425.4,154.7,425,154.3,424.5,154.3z"/>
	<path class="st6" d="M448.5,154.3h-4c-0.5,0-0.9,0.4-0.9,0.9c0,0.5,0.4,0.9,0.9,0.9h4c0.5,0,0.9-0.4,0.9-0.9   C449.4,154.7,449,154.3,448.5,154.3z"/>
	<path class="st6" d="M432.5,154.3h-4c-0.5,0-0.9,0.4-0.9,0.9c0,0.5,0.4,0.9,0.9,0.9h4c0.5,0,0.9-0.4,0.9-0.9   C433.4,154.7,433,154.3,432.5,154.3z"/>
	<path class="st6" d="M456.6,154.3h-4c-0.5,0-0.9,0.4-0.9,0.9c0,0.5,0.4,0.9,0.9,0.9c0,0,0,0,0,0h4c0.5,0,0.9-0.4,0.9-0.9   C457.4,154.7,457,154.3,456.6,154.3z"/>
	<path class="st6" d="M440.5,154.3h-4c-0.5,0-0.9,0.4-0.9,0.9c0,0.5,0.4,0.9,0.9,0.9h4c0.5,0,0.9-0.4,0.9-0.9   C441.4,154.7,441,154.3,440.5,154.3z"/>
	<path class="st6" d="M384.4,154.3h-1.1v-1.1c0.1-0.5-0.3-0.9-0.8-1c-0.5-0.1-0.9,0.3-1,0.8c0,0.1,0,0.1,0,0.2v2   c0,0.5,0.4,0.9,0.9,0.9h2c0.5,0,0.9-0.4,0.9-0.9C385.3,154.7,384.9,154.3,384.4,154.3L384.4,154.3z"/>
	<path class="st6" d="M382.4,145.8c-0.5,0-0.9,0.4-0.9,0.8c0,0,0,0,0,0v3.2c0.1,0.5,0.5,0.8,1,0.8c0.4,0,0.7-0.4,0.8-0.8v-3.2   C383.3,146.2,382.9,145.8,382.4,145.8L382.4,145.8z"/>
	<path class="st6" d="M382.4,139.3c-0.5,0-0.9,0.4-0.9,0.9v3.2c-0.1,0.5,0.3,0.9,0.8,1c0.5,0.1,0.9-0.3,1-0.8c0-0.1,0-0.1,0-0.2   v-3.2C383.3,139.7,382.9,139.3,382.4,139.3z"/>
	<path class="st6" d="M384.4,134.1h-2c-0.5,0-0.9,0.4-0.9,0.8c0,0,0,0,0,0v2c-0.1,0.5,0.3,0.9,0.8,1c0.5,0.1,0.9-0.3,1-0.8   c0-0.1,0-0.1,0-0.2v-1.1h1.1c0.5-0.1,0.8-0.5,0.8-1C385.2,134.5,384.8,134.1,384.4,134.1L384.4,134.1z"/>
	<path class="st6" d="M416.5,134.1h-4c-0.5-0.1-0.9,0.3-1,0.8c-0.1,0.5,0.3,0.9,0.8,1c0.1,0,0.1,0,0.2,0h4c0.5,0.1,0.9-0.3,1-0.8   c0.1-0.5-0.3-0.9-0.8-1C416.6,134.1,416.6,134.1,416.5,134.1z"/>
	<path class="st6" d="M408.5,134.1h-4c-0.5-0.1-0.9,0.3-1,0.8c-0.1,0.5,0.3,0.9,0.8,1c0.1,0,0.1,0,0.2,0h4c0.5,0.1,0.9-0.3,1-0.8   c0.1-0.5-0.3-0.9-0.8-1C408.6,134.1,408.5,134.1,408.5,134.1z"/>
	<path class="st6" d="M424.5,134.1h-4c-0.5-0.1-0.9,0.3-1,0.8c-0.1,0.5,0.3,0.9,0.8,1c0.1,0,0.1,0,0.2,0h4c0.5-0.1,0.8-0.5,0.8-1   C425.2,134.5,424.9,134.1,424.5,134.1z"/>
	<path class="st6" d="M392.5,134.1h-4c-0.5,0.1-0.8,0.5-0.8,1c0,0.4,0.4,0.7,0.8,0.8h4c0.5,0.1,0.9-0.3,1-0.8c0.1-0.5-0.3-0.9-0.8-1   C392.6,134.1,392.5,134.1,392.5,134.1z"/>
	<path class="st6" d="M400.5,134.1h-4c-0.5-0.1-0.9,0.3-1,0.8c-0.1,0.5,0.3,0.9,0.8,1c0.1,0,0.1,0,0.2,0h4c0.5,0.1,0.9-0.3,1-0.8   c0.1-0.5-0.3-0.9-0.8-1C400.6,134.1,400.5,134.1,400.5,134.1z"/>
	<path class="st6" d="M432.5,134.1h-4c-0.5,0.1-0.8,0.5-0.8,1c0,0.4,0.4,0.7,0.8,0.8h4c0.5,0.1,0.9-0.3,1-0.8c0.1-0.5-0.3-0.9-0.8-1   C432.6,134.1,432.6,134.1,432.5,134.1z"/>
	<path class="st6" d="M448.5,134.1h-4c-0.5,0.1-0.8,0.5-0.8,1c0,0.4,0.4,0.7,0.8,0.8h4c0.5,0.1,0.9-0.3,1-0.8c0.1-0.5-0.3-0.9-0.8-1   C448.7,134.1,448.6,134.1,448.5,134.1z"/>
	<path class="st6" d="M456.6,134.1h-4c-0.5-0.1-0.9,0.3-1,0.8c-0.1,0.5,0.3,0.9,0.8,1c0.1,0,0.1,0,0.2,0h4c0.5-0.1,0.8-0.5,0.8-1   C457.3,134.5,457,134.1,456.6,134.1z"/>
	<path class="st6" d="M440.5,134.1h-4c-0.5-0.1-0.9,0.3-1,0.8c-0.1,0.5,0.3,0.9,0.8,1c0.1,0,0.1,0,0.2,0h4c0.5-0.1,0.8-0.5,0.8-1   C441.3,134.5,440.9,134.1,440.5,134.1z"/>
	<path class="st6" d="M462.6,134.1h-2c-0.5,0.1-0.8,0.5-0.8,1c0,0.4,0.4,0.7,0.8,0.8h1.1v1.1c-0.1,0.5,0.3,0.9,0.8,1   c0.5,0.1,0.9-0.3,1-0.8c0-0.1,0-0.1,0-0.2v-2C463.4,134.5,463.1,134.1,462.6,134.1C462.6,134.1,462.6,134.1,462.6,134.1z"/>
	<path class="st6" d="M462.6,145.8c-0.5,0-0.9,0.4-0.9,0.8c0,0,0,0,0,0v3.2c0.1,0.5,0.5,0.8,1,0.8c0.4,0,0.7-0.4,0.8-0.8v-3.2   C463.4,146.2,463.1,145.8,462.6,145.8C462.6,145.8,462.6,145.8,462.6,145.8z"/>
	<path class="st6" d="M462.6,139.3c-0.5,0-0.9,0.4-0.9,0.9c0,0,0,0,0,0v3.2c-0.1,0.5,0.3,0.9,0.8,1c0.5,0.1,0.9-0.3,1-0.8   c0-0.1,0-0.1,0-0.2v-3.2C463.4,139.7,463.1,139.3,462.6,139.3z"/>
	<path class="st6" d="M462.6,168.7h-2c-0.5,0.1-0.8,0.5-0.8,1c0,0.4,0.4,0.7,0.8,0.8h2c0.5,0.1,0.9-0.3,1-0.8c0.1-0.5-0.3-0.9-0.8-1   C462.7,168.7,462.6,168.7,462.6,168.7z"/>
	<path class="st6" d="M416.5,168.7h-4c-0.5-0.1-0.9,0.3-1,0.8c-0.1,0.5,0.3,0.9,0.8,1c0.1,0,0.1,0,0.2,0h4c0.5,0.1,0.9-0.3,1-0.8   c0.1-0.5-0.3-0.9-0.8-1C416.6,168.7,416.6,168.7,416.5,168.7z"/>
	<path class="st6" d="M400.5,168.7h-4c-0.5-0.1-0.9,0.3-1,0.8c-0.1,0.5,0.3,0.9,0.8,1c0.1,0,0.1,0,0.2,0h4c0.5,0.1,0.9-0.3,1-0.8   c0.1-0.5-0.3-0.9-0.8-1C400.6,168.7,400.5,168.7,400.5,168.7z"/>
	<path class="st6" d="M392.5,168.7h-4c-0.5,0.1-0.8,0.5-0.8,1c0,0.4,0.4,0.7,0.8,0.8h4c0.5,0.1,0.9-0.3,1-0.8c0.1-0.5-0.3-0.9-0.8-1   C392.6,168.7,392.5,168.7,392.5,168.7z"/>
	<path class="st6" d="M424.5,168.7h-4c-0.5-0.1-0.9,0.3-1,0.8c-0.1,0.5,0.3,0.9,0.8,1c0.1,0,0.1,0,0.2,0h4c0.5-0.1,0.8-0.5,0.8-1   C425.2,169.1,424.9,168.8,424.5,168.7z"/>
	<path class="st6" d="M408.5,168.7h-4c-0.5-0.1-0.9,0.3-1,0.8c-0.1,0.5,0.3,0.9,0.8,1c0.1,0,0.1,0,0.2,0h4c0.5,0.1,0.9-0.3,1-0.8   c0.1-0.5-0.3-0.9-0.8-1C408.6,168.7,408.5,168.7,408.5,168.7z"/>
	<path class="st6" d="M432.5,168.7h-4c-0.5,0.1-0.8,0.5-0.8,1c0,0.4,0.4,0.7,0.8,0.8h4c0.5,0.1,0.9-0.3,1-0.8c0.1-0.5-0.3-0.9-0.8-1   C432.6,168.7,432.6,168.7,432.5,168.7z"/>
	<path class="st6" d="M456.6,168.7h-4c-0.5-0.1-0.9,0.3-1,0.8c-0.1,0.5,0.3,0.9,0.8,1c0.1,0,0.1,0,0.2,0h4c0.5-0.1,0.8-0.5,0.8-1   C457.3,169.1,457,168.8,456.6,168.7z"/>
	<path class="st6" d="M448.5,168.7h-4c-0.5,0.1-0.8,0.5-0.8,1c0,0.4,0.4,0.7,0.8,0.8h4c0.5,0.1,0.9-0.3,1-0.8c0.1-0.5-0.3-0.9-0.8-1   C448.7,168.7,448.6,168.7,448.5,168.7z"/>
	<path class="st6" d="M440.5,168.7h-4c-0.5-0.1-0.9,0.3-1,0.8c-0.1,0.5,0.3,0.9,0.8,1c0.1,0,0.1,0,0.2,0h4c0.5-0.1,0.8-0.5,0.8-1   C441.3,169.1,440.9,168.8,440.5,168.7z"/>
	<path class="st6" d="M384.4,168.7h-2c-0.5-0.1-0.9,0.3-1,0.8c-0.1,0.5,0.3,0.9,0.8,1c0.1,0,0.1,0,0.2,0h2c0.5-0.1,0.8-0.5,0.8-1   C385.2,169.1,384.8,168.8,384.4,168.7z"/>
	<path class="st6" d="M462.6,177h-2c-0.5,0-0.9,0.4-0.9,0.9c0,0.5,0.4,0.9,0.9,0.9h2c0.5,0,0.9-0.4,0.9-0.9   C463.4,177.4,463,177,462.6,177z"/>
	<path class="st6" d="M408.5,177h-4c-0.5,0-0.9,0.4-0.9,0.9c0,0.5,0.4,0.9,0.9,0.9h4c0.5,0,0.9-0.4,0.9-0.9   C409.3,177.4,409,177,408.5,177z"/>
	<path class="st6" d="M416.5,177h-4c-0.5,0-0.9,0.4-0.9,0.9c0,0.5,0.4,0.9,0.9,0.9h4c0.5,0,0.9-0.4,0.9-0.9   C417.4,177.4,417,177,416.5,177z"/>
	<path class="st6" d="M392.5,177h-4c-0.5,0-0.9,0.4-0.9,0.9c0,0.5,0.4,0.9,0.9,0.9h4c0.5,0,0.9-0.4,0.9-0.9   C393.3,177.4,392.9,177,392.5,177z"/>
	<path class="st6" d="M400.5,177h-4c-0.5,0-0.9,0.4-0.9,0.9c0,0.5,0.4,0.9,0.9,0.9c0,0,0,0,0,0h4c0.5,0,0.9-0.4,0.9-0.9   C401.3,177.4,400.9,177,400.5,177z"/>
	<path class="st6" d="M440.5,177h-4c-0.5,0-0.9,0.4-0.9,0.9c0,0.5,0.4,0.9,0.9,0.9h4c0.5,0,0.9-0.4,0.9-0.9   C441.4,177.4,441,177,440.5,177z"/>
	<path class="st6" d="M456.6,177h-4c-0.5,0-0.9,0.4-0.9,0.9c0,0.5,0.4,0.9,0.9,0.9c0,0,0,0,0,0h4c0.5,0,0.9-0.4,0.9-0.9   C457.4,177.4,457,177,456.6,177z"/>
	<path class="st6" d="M448.5,177h-4c-0.5,0-0.9,0.4-0.9,0.9c0,0.5,0.4,0.9,0.9,0.9h4c0.5,0,0.9-0.4,0.9-0.9   C449.4,177.4,449,177,448.5,177z"/>
	<path class="st6" d="M432.5,177h-4c-0.5,0-0.9,0.4-0.9,0.9c0,0.5,0.4,0.9,0.9,0.9h4c0.5,0,0.9-0.4,0.9-0.9   C433.4,177.4,433,177,432.5,177z"/>
	<path class="st6" d="M424.5,177h-4c-0.5,0-0.9,0.4-0.9,0.9c0,0.5,0.4,0.9,0.9,0.9h4c0.5,0,0.9-0.4,0.9-0.9   C425.4,177.4,425,177,424.5,177z"/>
	<path class="st6" d="M384.4,177h-2c-0.5,0-0.9,0.4-0.9,0.9c0,0.5,0.4,0.9,0.9,0.9c0,0,0,0,0,0h2c0.5,0,0.9-0.4,0.9-0.9   C385.3,177.4,384.9,177,384.4,177z"/>
	<path class="st6" d="M462.6,185.3h-2c-0.5,0.1-0.8,0.5-0.8,1c0,0.4,0.4,0.7,0.8,0.8h2c0.5,0.1,0.9-0.3,1-0.8c0.1-0.5-0.3-0.9-0.8-1   C462.7,185.3,462.6,185.3,462.6,185.3z"/>
	<path class="st6" d="M392.5,185.3h-4c-0.5,0.1-0.8,0.5-0.8,1c0,0.4,0.4,0.7,0.8,0.8h4c0.5,0.1,0.9-0.3,1-0.8c0.1-0.5-0.3-0.9-0.8-1   C392.6,185.3,392.5,185.3,392.5,185.3z"/>
	<path class="st6" d="M408.5,185.3h-4c-0.5-0.1-0.9,0.3-1,0.8c-0.1,0.5,0.3,0.9,0.8,1c0.1,0,0.1,0,0.2,0h4c0.5,0.1,0.9-0.3,1-0.8   c0.1-0.5-0.3-0.9-0.8-1C408.6,185.3,408.5,185.3,408.5,185.3z"/>
	<path class="st6" d="M416.5,185.3h-4c-0.5-0.1-0.9,0.3-1,0.8c-0.1,0.5,0.3,0.9,0.8,1c0.1,0,0.1,0,0.2,0h4c0.5,0.1,0.9-0.3,1-0.8   c0.1-0.5-0.3-0.9-0.8-1C416.6,185.3,416.6,185.3,416.5,185.3z"/>
	<path class="st6" d="M400.5,185.3h-4c-0.5-0.1-0.9,0.3-1,0.8c-0.1,0.5,0.3,0.9,0.8,1c0.1,0,0.1,0,0.2,0h4c0.5,0.1,0.9-0.3,1-0.8   c0.1-0.5-0.3-0.9-0.8-1C400.6,185.3,400.5,185.3,400.5,185.3z"/>
	<path class="st6" d="M432.5,185.3h-4c-0.5,0.1-0.8,0.5-0.8,1c0,0.4,0.4,0.7,0.8,0.8h4c0.5,0.1,0.9-0.3,1-0.8c0.1-0.5-0.3-0.9-0.8-1   C432.6,185.3,432.6,185.3,432.5,185.3z"/>
	<path class="st6" d="M448.5,185.3h-4c-0.5,0.1-0.8,0.5-0.8,1c0,0.4,0.4,0.7,0.8,0.8h4c0.5,0.1,0.9-0.3,1-0.8c0.1-0.5-0.3-0.9-0.8-1   C448.7,185.3,448.6,185.3,448.5,185.3z"/>
	<path class="st6" d="M424.5,185.3h-4c-0.5-0.1-0.9,0.3-1,0.8c-0.1,0.5,0.3,0.9,0.8,1c0.1,0,0.1,0,0.2,0h4c0.5-0.1,0.8-0.5,0.8-1   C425.2,185.6,424.9,185.3,424.5,185.3z"/>
	<path class="st6" d="M456.6,185.3h-4c-0.5-0.1-0.9,0.3-1,0.8c-0.1,0.5,0.3,0.9,0.8,1c0.1,0,0.1,0,0.2,0h4c0.5-0.1,0.8-0.5,0.8-1   C457.3,185.6,457,185.3,456.6,185.3z"/>
	<path class="st6" d="M440.5,185.3h-4c-0.5-0.1-0.9,0.3-1,0.8c-0.1,0.5,0.3,0.9,0.8,1c0.1,0,0.1,0,0.2,0h4c0.5-0.1,0.8-0.5,0.8-1   C441.3,185.6,440.9,185.3,440.5,185.3z"/>
	<path class="st6" d="M384.4,185.3h-2c-0.5-0.1-0.9,0.3-1,0.8c-0.1,0.5,0.3,0.9,0.8,1c0.1,0,0.1,0,0.2,0h2c0.5-0.1,0.8-0.5,0.8-1   C385.2,185.6,384.8,185.3,384.4,185.3z"/>
	<path class="st6" d="M434.2,193.5h-2c-0.5,0.1-0.8,0.5-0.8,1c0,0.4,0.4,0.7,0.8,0.8h2c0.5,0.1,0.9-0.3,1-0.8c0.1-0.5-0.3-0.9-0.8-1   C434.3,193.5,434.3,193.5,434.2,193.5z"/>
	<path class="st6" d="M393.1,193.5h-4.3c-0.5-0.1-0.9,0.3-1,0.8c-0.1,0.5,0.3,0.9,0.8,1c0.1,0,0.1,0,0.2,0h4.3   c0.5,0.1,0.9-0.3,1-0.8c0.1-0.5-0.3-0.9-0.8-1C393.2,193.5,393.2,193.5,393.1,193.5z"/>
	<path class="st6" d="M410.5,193.5h-4.3c-0.5-0.1-0.9,0.3-1,0.8c-0.1,0.5,0.3,0.9,0.8,1c0.1,0,0.1,0,0.2,0h4.3   c0.5,0.1,0.9-0.3,1-0.8c0.1-0.5-0.3-0.9-0.8-1C410.6,193.5,410.6,193.5,410.5,193.5z"/>
	<path class="st6" d="M401.8,193.5h-4.4c-0.5,0.1-0.8,0.5-0.8,1c0,0.4,0.4,0.7,0.8,0.8h4.4c0.5-0.1,0.8-0.5,0.8-1   C402.5,193.9,402.2,193.6,401.8,193.5z"/>
	<path class="st6" d="M427.9,193.5h-4.3c-0.5-0.1-0.9,0.3-1,0.8c-0.1,0.5,0.3,0.9,0.8,1c0.1,0,0.1,0,0.2,0h4.3   c0.5,0.1,0.9-0.3,1-0.8c0.1-0.5-0.3-0.9-0.8-1C428,193.5,427.9,193.5,427.9,193.5z"/>
	<path class="st6" d="M419.2,193.5h-4.4c-0.5,0.1-0.8,0.5-0.8,1c0,0.4,0.4,0.7,0.8,0.8h4.4c0.5-0.1,0.8-0.5,0.8-1   C419.9,193.9,419.6,193.6,419.2,193.5z"/>
	<path class="st6" d="M384.4,193.5h-2c-0.5-0.1-0.9,0.3-1,0.8c-0.1,0.5,0.3,0.9,0.8,1c0.1,0,0.1,0,0.2,0h2c0.5-0.1,0.8-0.5,0.8-1   C385.2,193.9,384.8,193.6,384.4,193.5z"/>
	<rect x="425.7" y="218.5" class="st5" width="38.7" height="33.1"/>
	<path class="st1" d="M464.5,217.6h-38.7c-0.5,0-0.9,0.4-0.9,0.9v33.1c0,0.5,0.4,0.9,0.9,0.9c0,0,0,0,0,0h38.7   c0.5,0,0.9-0.4,0.9-0.9c0,0,0,0,0,0v-33.1C465.4,218,465,217.6,464.5,217.6L464.5,217.6z M463.5,250.7h-36.9v-31.3h36.9V250.7z"/>
	<rect x="464.5" y="218.5" class="st3" width="39.3" height="33.1"/>
	<path class="st1" d="M503.8,217.6h-39.3c-0.5,0-0.9,0.4-0.9,0.9v33.1c0,0.5,0.4,0.9,0.9,0.9h39.3c0.5,0,0.9-0.4,0.9-0.9   c0,0,0,0,0,0v-33.1C504.7,218,504.3,217.6,503.8,217.6L503.8,217.6z M502.9,250.7h-37.4v-31.3h37.4V250.7z"/>
	<rect x="405.1" y="251.7" class="st3" width="38.8" height="70.5"/>
	<path class="st0" d="M444,250.8h-38.9c-0.5,0-0.9,0.4-0.9,0.9v70.5c0,0.5,0.4,0.9,0.9,0.9H444c0.5,0,0.9-0.4,0.9-0.9v-70.5   C444.9,251.2,444.5,250.8,444,250.8z M443.1,321.3H406v-68.7h37.1L443.1,321.3z"/>
	<rect x="444" y="251.7" class="st8" width="67.8" height="70.5"/>
	<path class="st0" d="M511.7,250.8H444c-0.5,0-0.9,0.4-0.9,0.9v70.5c0,0.5,0.4,0.9,0.9,0.9h67.8c0.5,0,0.9-0.4,0.9-0.9c0,0,0,0,0,0   v-70.5C512.6,251.2,512.3,250.8,511.7,250.8C511.8,250.8,511.8,250.8,511.7,250.8z M510.9,321.3h-66v-68.7h66V321.3z"/>
	<rect x="156.1" y="281.6" class="st2" width="21.8" height="20.5"/>
	<path class="st1" d="M177.9,280.7h-21.8c-0.5,0-0.9,0.4-0.9,0.9l0,0v20.5c0,0.5,0.4,0.9,0.9,0.9l0,0h21.8c0.5,0,0.9-0.4,0.9-0.9   l0,0v-20.5C178.8,281.1,178.4,280.7,177.9,280.7L177.9,280.7z M177,301.2h-20v-18.6h20V301.2z"/>
	<rect x="133.9" y="281.6" class="st3" width="22.1" height="20.5"/>
	<path class="st1" d="M156.1,280.7H134c-0.5,0-0.9,0.4-0.9,0.9c0,0,0,0,0,0v20.5c0,0.5,0.4,0.9,0.9,0.9c0,0,0,0,0,0h22.1   c0.5,0,0.9-0.4,0.9-0.9v-20.5C157.1,281.1,156.6,280.7,156.1,280.7C156.1,280.7,156.1,280.7,156.1,280.7z M155.1,301.2h-20.3v-18.6   h20.3L155.1,301.2z"/>
	<rect x="167.6" y="302.1" class="st3" width="21.9" height="20.1"/>
	<path class="st1" d="M189.5,301.2h-21.9c-0.5,0-0.9,0.4-0.9,0.9v20.1c0,0.5,0.4,0.9,0.9,0.9h21.9c0.5,0,0.9-0.4,0.9-0.9v-20.1   C190.4,301.6,190,301.2,189.5,301.2z M188.6,321.3h-20V303h20V321.3z"/>
	<rect x="129.5" y="302.1" class="st5" width="38.2" height="20.1"/>
	<path class="st1" d="M167.6,301.2h-38.2c-0.5,0-0.9,0.4-0.9,0.9v20.1c0,0.5,0.4,0.9,0.9,0.9h38.2c0.5,0,0.9-0.4,0.9-0.9v-20.1   C168.6,301.6,168.2,301.2,167.6,301.2z M166.7,321.3h-36.3V303h36.3V321.3z"/>
	<rect x="522.9" y="164.2" class="st3" width="16" height="21.1"/>
	<path class="st0" d="M538.9,163.3h-16c-0.5,0-0.9,0.4-0.9,0.9v21.1c0,0.5,0.4,0.9,0.9,0.9h16c0.5,0,0.9-0.4,0.9-0.9v-21.1   C539.8,163.7,539.4,163.3,538.9,163.3z M538.1,184.4h-14.3v-19.3h14.3V184.4z"/>
	<rect x="538.9" y="164.2" class="st5" width="16" height="21.1"/>
	<path class="st0" d="M555,163.3h-16c-0.5,0-0.9,0.4-0.9,0.9v21.1c0,0.5,0.4,0.9,0.9,0.9h16c0.5,0,0.9-0.4,0.9-0.9v-21.1   C555.9,163.7,555.5,163.3,555,163.3z M554.1,184.4h-14.3v-19.3h14.3L554.1,184.4z"/>
	<polygon class="st5" points="538.5,191.4 570.8,322.2 576.5,322.2 544.3,191.4  "/>
	<path class="st0" d="M545.1,191.2c-0.1-0.4-0.4-0.7-0.8-0.7h-5.7c-0.5,0-0.9,0.4-0.9,0.8c0,0.1,0,0.2,0,0.2l32.2,130.8   c0.1,0.4,0.4,0.7,0.8,0.7h5.7c0.5,0,0.9-0.4,0.9-0.9c0-0.1,0-0.1,0-0.2L545.1,191.2z M571.4,321.4l-31.8-129.1h3.9l31.8,129.1   H571.4z"/>
	<path class="st0" d="M568.8,190.6h-26.1c-0.5-0.1-0.9,0.3-1,0.8c-0.1,0.5,0.3,0.9,0.8,1c0.1,0,0.1,0,0.2,0h26.1   c0.5,0.1,0.9-0.3,1-0.8c0.1-0.5-0.3-0.9-0.8-1C568.9,190.6,568.9,190.6,568.8,190.6L568.8,190.6z"/>
	<path class="st0" d="M572.9,206.9h-26.1c-0.5-0.1-0.9,0.3-1,0.8c-0.1,0.5,0.3,0.9,0.8,1c0.1,0,0.1,0,0.2,0h26.1   c0.5,0.1,0.9-0.3,1-0.8c0.1-0.5-0.3-0.9-0.8-1C573,206.9,572.9,206.9,572.9,206.9L572.9,206.9z"/>
	<path class="st0" d="M589.2,272.3h-26.1c-0.5,0-0.9,0.4-0.9,0.9c0,0.5,0.4,0.9,0.9,0.9h26.1c0.5,0,0.9-0.4,0.9-0.9   C590,272.7,589.6,272.3,589.2,272.3L589.2,272.3z"/>
	<path class="st0" d="M577,223.3h-26.1c-0.5,0.1-0.8,0.5-0.8,1c0,0.4,0.4,0.7,0.8,0.8H577c0.5-0.1,0.8-0.5,0.8-1   C577.7,223.6,577.4,223.3,577,223.3z"/>
	<path class="st0" d="M593.2,288.7h-26.1c-0.5,0-0.9,0.4-0.9,0.9c0,0.5,0.4,0.9,0.9,0.9c0,0,0,0,0,0h26.1c0.5,0,0.9-0.4,0.9-0.9   C594.1,289.1,593.7,288.7,593.2,288.7z"/>
	<path class="st0" d="M581,239.6h-26.1c-0.5-0.1-0.9,0.3-1,0.8c-0.1,0.5,0.3,0.9,0.8,1c0.1,0,0.1,0,0.2,0H581c0.5,0.1,0.9-0.3,1-0.8   c0.1-0.5-0.3-0.9-0.8-1C581.1,239.6,581.1,239.6,581,239.6z"/>
	<path class="st0" d="M585.1,256H559c-0.5-0.1-0.9,0.3-1,0.8c-0.1,0.5,0.3,0.9,0.8,1c0.1,0,0.1,0,0.2,0h26.1c0.5-0.1,0.8-0.5,0.8-1   C585.8,256.3,585.5,256,585.1,256z"/>
	<path class="st0" d="M601.4,321.4h-26.1c-0.5,0-0.9,0.4-0.9,0.9c0,0.5,0.4,0.9,0.9,0.9h26.1c0.5,0,0.9-0.4,0.9-0.9   C602.3,321.8,601.9,321.4,601.4,321.4z"/>
	<path class="st0" d="M597.3,305h-26.1c-0.5,0-0.9,0.4-0.9,0.9c0,0.5,0.4,0.9,0.9,0.9h26.1c0.5,0,0.9-0.4,0.9-0.9   C598.2,305.4,597.8,305,597.3,305z"/>
	<polygon class="st5" points="566.3,191.4 598.5,322.2 604.2,322.2 572,191.4  "/>
	<path class="st0" d="M572.9,191.2c-0.1-0.4-0.5-0.7-0.9-0.6h-5.7c-0.3,0-0.5,0.1-0.7,0.3c-0.2,0.2-0.2,0.5-0.2,0.7l32.2,130.8   c0.1,0.4,0.4,0.7,0.8,0.7h5.7c0.3,0,0.5-0.1,0.7-0.3c0.2-0.2,0.2-0.5,0.2-0.7L572.9,191.2z M599.2,321.4l-31.8-129.1h3.9   l31.8,129.1H599.2z"/>
	<polygon class="st5" points="490,322.2 495.8,322.2 528,191.4 522.2,191.4  "/>
	<path class="st0" d="M528,190.6h-5.7c-0.4,0-0.7,0.3-0.8,0.7L489.2,322c-0.1,0.5,0.2,0.9,0.7,1.1c0.1,0,0.1,0,0.2,0h5.7   c0.4,0,0.7-0.3,0.8-0.7l32.2-130.8c0.1-0.3,0-0.5-0.2-0.7C528.5,190.7,528.3,190.6,528,190.6z M495.1,321.4h-3.9l31.8-129.1h3.9   L495.1,321.4z"/>
	<path class="st0" d="M551.6,190.6h-26.1c-0.5,0.1-0.8,0.5-0.8,1c0,0.4,0.4,0.7,0.8,0.8h26.1c0.5-0.1,0.8-0.5,0.8-1   C552.3,190.9,552,190.6,551.6,190.6z"/>
	<path class="st0" d="M547.5,206.9h-26.1c-0.5-0.1-0.9,0.3-1,0.8c-0.1,0.5,0.3,0.9,0.8,1c0.1,0,0.1,0,0.2,0h26.1   c0.5,0.1,0.9-0.3,1-0.8c0.1-0.5-0.3-0.9-0.8-1C547.6,206.9,547.6,206.9,547.5,206.9L547.5,206.9z"/>
	<path class="st0" d="M531.2,272.3h-26.1c-0.5,0-0.9,0.4-0.9,0.9c0,0.5,0.4,0.9,0.9,0.9h26.1c0.5,0,0.9-0.4,0.9-0.9   C532,272.7,531.7,272.3,531.2,272.3L531.2,272.3z"/>
	<path class="st0" d="M543.4,223.3h-26.1c-0.5-0.1-0.9,0.3-1,0.8c-0.1,0.5,0.3,0.9,0.8,1c0.1,0,0.1,0,0.2,0h26.1   c0.5,0.1,0.9-0.3,1-0.8c0.1-0.5-0.3-0.9-0.8-1C543.5,223.3,543.5,223.3,543.4,223.3L543.4,223.3z"/>
	<path class="st0" d="M527.1,288.7H501c-0.5,0-0.9,0.4-0.9,0.9c0,0.5,0.4,0.9,0.9,0.9h26.1c0.5,0,0.9-0.4,0.9-0.9   C528,289.1,527.6,288.7,527.1,288.7L527.1,288.7z"/>
	<path class="st0" d="M539.3,239.6h-26.1c-0.5-0.1-0.9,0.3-1,0.8c-0.1,0.5,0.3,0.9,0.8,1c0.1,0,0.1,0,0.2,0h26.1   c0.5-0.1,0.8-0.5,0.8-1C540.1,239.9,539.7,239.6,539.3,239.6z"/>
	<path class="st0" d="M535.3,256h-26.1c-0.5-0.1-0.9,0.3-1,0.8c-0.1,0.5,0.3,0.9,0.8,1c0.1,0,0.1,0,0.2,0h26.1   c0.5,0.1,0.9-0.3,1-0.8c0.1-0.5-0.3-0.9-0.8-1C535.4,256,535.3,256,535.3,256z"/>
	<path class="st0" d="M519,321.4h-26.1c-0.5,0-0.9,0.4-0.9,0.9c0,0.5,0.4,0.9,0.9,0.9H519c0.5,0,0.9-0.4,0.9-0.9   C519.9,321.8,519.5,321.4,519,321.4z"/>
	<path class="st0" d="M523,305h-26.1c-0.5,0-0.9,0.4-0.9,0.9c0,0.5,0.4,0.9,0.9,0.9H523c0.5,0,0.9-0.4,0.9-0.9   C523.9,305.4,523.5,305,523,305z"/>
	<polygon class="st2" points="517.8,322.2 523.5,322.2 555.7,191.4 550,191.4  "/>
	<path class="st0" d="M555.7,190.6H550c-0.4,0-0.7,0.3-0.8,0.7L517,322c-0.1,0.3,0,0.5,0.2,0.7c0.2,0.2,0.4,0.3,0.7,0.3h5.7   c0.4,0,0.7-0.3,0.8-0.7l32.2-130.8c0.1-0.3,0-0.5-0.2-0.7C556.3,190.7,556,190.6,555.7,190.6z M522.8,321.4h-3.9l31.8-129.1h3.9   L522.8,321.4z"/>
	<rect x="517" y="185.3" class="st2" width="60.2" height="6.2"/>
	<path class="st0" d="M577.2,184.4H517c-0.5,0-0.9,0.4-0.9,0.9v6.2c0,0.5,0.4,0.9,0.9,0.9h60.2c0.5,0,0.9-0.4,0.9-0.9v-6.2   C578.1,184.8,577.7,184.4,577.2,184.4C577.2,184.4,577.2,184.4,577.2,184.4z M576.3,190.6h-58.4v-4.4h58.4V190.6z"/>
</g>
</svg>