<?xml version="1.0" encoding="UTF-8"?>
<!-- Generator: Adobe Illustrator 22.1.0, SVG Export Plug-In . SVG Version: 6.00 Build 0)  -->
<svg version="1.1" id="Capa_1" xmlns="http://www.w3.org/2000/svg" xmlns:xlink="http://www.w3.org/1999/xlink" x="0px" y="0px" viewBox="0 0 180 180" style="enable-background:new 0 0 180 180;" xml:space="preserve">
<style type="text/css">
	.st0{fill:#FEDD00;}
</style>
<title>Mesa de trabajo 2 copia 3</title>
<g id="gears">
	<path class="st0" d="M171.4,66.1L152.8,66c-1.6-4.2-3.6-8.3-6.1-12.1l12.1-13.5c0.3-0.3,0.3-0.8,0-1.1c-7.2-9.8-16.5-18-27.1-23.9   c-0.3-0.2-0.7-0.1-1,0.1l-13.3,13.2c-4.1-1.8-8.4-3.3-12.9-4.2l-1-18.1c0-0.4-0.3-0.7-0.7-0.8c-12.1-1.8-24.4-1-36.1,2.3   C66.3,7.8,66,8.2,66,8.6L66,27.2c-4.2,1.6-8.3,3.7-12.1,6.1L40.3,21.2c-0.3-0.3-0.8-0.3-1.1-0.1c-4.9,3.6-9.4,7.7-13.4,12.3   c-4,4.6-7.6,9.6-10.5,14.9c-0.2,0.3-0.1,0.7,0.1,1l13.1,13.3c-1.8,4.1-3.3,8.4-4.2,12.9l-18.1,1c-0.4,0-0.7,0.3-0.8,0.7   c-1.8,12.1-1,24.4,2.3,36.1c0.1,0.4,0.4,0.6,0.8,0.6l18.7,0.1c1.6,4.2,3.7,8.3,6.1,12.1l-12.1,13.5c-0.3,0.3-0.3,0.8,0,1.1   c7.2,9.8,16.5,18,27.1,23.9c0.3,0.2,0.7,0.1,1-0.1l13.3-13.1c4.1,1.8,8.4,3.3,12.9,4.2l1,18.1c0,0.4,0.3,0.8,0.7,0.8   c4.2,0.6,8.4,0.9,12.7,1c7.9,0,15.8-1.1,23.4-3.2c0.4-0.1,0.6-0.4,0.6-0.8l0.1-18.7c4.2-1.6,8.3-3.6,12.1-6.1l13.5,12.1   c0.3,0.3,0.8,0.3,1.1,0c9.8-7.2,18-16.5,23.9-27.1c0.2-0.3,0.1-0.7-0.1-1l-13.2-13.3c1.8-4.1,3.3-8.4,4.2-12.9l18.1-1   c0.4,0,0.7-0.3,0.8-0.7c1.8-12.1,1-24.4-2.3-36.1C172.2,66.4,171.8,66.1,171.4,66.1z M172.9,101.9l-18.1,1c-0.4,0-0.7,0.3-0.8,0.7   c-1,4.7-2.5,9.3-4.5,13.7c-0.2,0.3-0.1,0.7,0.2,1l13.1,13.2c-5.7,10-13.4,18.7-22.5,25.6L126.8,145c-0.3-0.3-0.7-0.3-1.1-0.1   c-4,2.6-8.4,4.8-12.9,6.5c-0.3,0.1-0.6,0.4-0.6,0.8l-0.1,18.6c-11.1,3-22.7,3.7-34.1,2.1l-1-18.1c0-0.4-0.3-0.7-0.7-0.8   c-4.7-1-9.3-2.5-13.7-4.5c-0.3-0.2-0.7-0.1-1,0.2l-13.2,13.1c-10-5.7-18.7-13.4-25.6-22.6L35,126.8c0.2-0.3,0.3-0.7,0.1-1   c-2.6-4-4.8-8.4-6.5-12.9c-0.1-0.3-0.4-0.6-0.8-0.6l-18.6-0.1c-3-11.1-3.7-22.7-2.1-34.1l18.1-1c0.4,0,0.7-0.3,0.8-0.7   c1-4.7,2.5-9.3,4.5-13.7c0.2-0.3,0.1-0.7-0.2-1L17.1,48.6c5.7-10,13.4-18.7,22.6-25.6l13.5,12.1c0.3,0.3,0.7,0.3,1,0.1   c4-2.6,8.4-4.8,12.9-6.5c0.3-0.1,0.6-0.4,0.6-0.8l0.1-18.6c11.1-3,22.7-3.7,34-2.2l1,18.1c0,0.4,0.3,0.7,0.7,0.8   c4.7,1,9.3,2.5,13.7,4.5c0.3,0.2,0.7,0.1,1-0.2l13.2-13.2c10,5.7,18.7,13.4,25.6,22.6l-12.1,13.5c-0.2,0.3-0.3,0.7-0.1,1   c2.6,4,4.8,8.4,6.5,12.9c0.1,0.3,0.4,0.6,0.8,0.6l18.6,0.1C173.8,78.9,174.5,90.5,172.9,101.9z"/>
	<path class="st0" d="M90,45.4c-24.6,0-44.6,20-44.6,44.6c0,24.6,20,44.6,44.6,44.6c24.6,0,44.6-20,44.6-44.6   c0-11.8-4.7-23.2-13.1-31.5C113.2,50.1,101.8,45.4,90,45.4z M120.3,120.3c-16.7,16.7-43.9,16.7-60.6,0C43,103.6,43,76.4,59.7,59.7   c16.7-16.7,43.9-16.7,60.6,0c8,8,12.5,18.9,12.5,30.3C132.9,101.4,128.4,112.3,120.3,120.3z"/>
</g>
</svg>