<?xml version="1.0" encoding="UTF-8"?>
<!-- Generator: Adobe Illustrator 22.1.0, SVG Export Plug-In . SVG Version: 6.00 Build 0)  -->
<svg version="1.1" id="Capa_1" xmlns="http://www.w3.org/2000/svg" xmlns:xlink="http://www.w3.org/1999/xlink" x="0px" y="0px" viewBox="0 0 290 420" style="enable-background:new 0 0 290 420;" xml:space="preserve">
<style type="text/css">
	.st0{fill:#CC9D00;}
	.st1{fill:#F9EAC5;}
	.st2{fill:#B58E12;}
	.st3{fill:#FFE6A2;}
	.st4{fill:#F4D438;}
</style>
<title>Mesa de trabajo 2 copia</title>
<g id="grua">
	<path class="st0" d="M34.3,72.4c-0.5,0-0.9,0.4-0.9,0.9v184.5c-0.1,0.5,0.3,0.9,0.8,1c0.5,0.1,0.9-0.3,1-0.8c0-0.1,0-0.1,0-0.2   V73.3C35.2,72.8,34.8,72.4,34.3,72.4z"/>
	<rect x="97.6" y="73.3" class="st1" width="63.2" height="63.2"/>
	<path class="st2" d="M160.8,72.4H97.6c-0.5,0-0.9,0.4-0.9,0.9v63.2c0,0.5,0.4,0.9,0.9,0.9h63.2c0.5,0,0.9-0.4,0.9-0.9c0,0,0,0,0,0   V73.3C161.7,72.8,161.3,72.4,160.8,72.4C160.8,72.4,160.8,72.4,160.8,72.4z M159.9,135.6H98.5V74.2h61.4V135.6z"/>
	<rect x="160.8" y="73.3" class="st1" width="126.5" height="12.2"/>
	<path class="st2" d="M287.3,72.4H160.8c-0.5,0-0.9,0.4-0.9,0.9v12.2c0,0.5,0.4,0.9,0.9,0.9h126.5c0.5,0,0.9-0.4,0.9-0.9l0,0V73.3   C288.2,72.8,287.8,72.4,287.3,72.4C287.3,72.4,287.3,72.4,287.3,72.4z M286.4,84.6H161.7V74.2h124.6V84.6z"/>
	<rect x="2.7" y="73.3" class="st1" width="63.2" height="12.2"/>
	<path class="st2" d="M65.9,72.4H2.7c-0.5,0-0.9,0.4-0.9,0.9v12.2c0,0.5,0.4,0.9,0.9,0.9h63.2c0.5,0,0.9-0.4,0.9-0.9l0,0V73.3   C66.9,72.8,66.5,72.4,65.9,72.4C66,72.4,65.9,72.4,65.9,72.4z M65,84.6H3.7V74.2H65L65,84.6z"/>
	<path class="st0" d="M97.6,230.5H65.9c-0.5,0-0.9,0.4-0.9,0.9V263c0,0.5,0.4,0.9,0.9,0.9h31.6c0.5,0,0.9-0.4,0.9-0.9v-31.6   C98.4,230.9,98,230.5,97.6,230.5z M96.7,262.2H66.8v-29.9h29.9V262.2z"/>
	<path class="st0" d="M66.6,230.8c-0.3-0.3-0.9-0.3-1.2,0c-0.3,0.3-0.3,0.9,0,1.2c0,0,0,0,0,0L97,263.6c0.3,0.4,0.9,0.4,1.2,0.1   c0.4-0.3,0.4-0.9,0.1-1.2c0,0-0.1-0.1-0.1-0.1L66.6,230.8z"/>
	<path class="st0" d="M97.6,262.2H65.9c-0.5,0-0.9,0.4-0.9,0.9v31.6c0,0.5,0.4,0.9,0.9,0.9h31.6c0.5,0,0.9-0.4,0.9-0.9V263   C98.4,262.5,98,262.2,97.6,262.2z M96.7,293.8H66.8v-29.9h29.9V293.8z"/>
	<path class="st0" d="M66.6,262.4c-0.3-0.3-0.9-0.3-1.2,0c-0.3,0.3-0.3,0.9,0,1.2c0,0,0,0,0,0L97,295.3c0.4,0.3,0.9,0.3,1.2-0.1   c0.3-0.3,0.3-0.8,0-1.1L66.6,262.4z"/>
	<path class="st0" d="M97.6,167.3H65.9c-0.5,0-0.9,0.4-0.9,0.9v31.6c0,0.5,0.4,0.9,0.9,0.9h31.6c0.5,0,0.9-0.4,0.9-0.9v-31.6   C98.4,167.7,98,167.3,97.6,167.3z M96.7,198.9H66.8V169h29.9V198.9z"/>
	<path class="st0" d="M66.6,167.6c-0.3-0.3-0.9-0.3-1.2,0c-0.3,0.3-0.3,0.9,0,1.2c0,0,0,0,0,0L97,200.4c0.3,0.4,0.9,0.4,1.2,0.1   c0.4-0.3,0.4-0.9,0.1-1.2c0,0-0.1-0.1-0.1-0.1L66.6,167.6z"/>
	<path class="st0" d="M97.6,198.9H65.9c-0.5,0-0.9,0.4-0.9,0.9v31.6c0,0.5,0.4,0.9,0.9,0.9h31.6c0.5,0,0.9-0.4,0.9-0.9v-31.6   C98.4,199.3,98,198.9,97.6,198.9z M96.7,230.5H66.8v-29.9h29.9V230.5z"/>
	<path class="st0" d="M66.6,199.2c-0.3-0.3-0.9-0.3-1.2,0c-0.3,0.3-0.3,0.9,0,1.2c0,0,0,0,0,0L97,232c0.3,0.4,0.9,0.4,1.2,0.1   c0.4-0.3,0.4-0.9,0.1-1.2c0,0-0.1-0.1-0.1-0.1L66.6,199.2z"/>
	<path class="st0" d="M97.6,357H65.9c-0.5,0-0.9,0.4-0.9,0.9v31.6c0,0.5,0.4,0.9,0.9,0.9h31.6c0.5,0,0.9-0.4,0.9-0.9v-31.6   C98.5,357.4,98.1,357,97.6,357C97.6,357,97.6,357,97.6,357z M96.7,388.6H66.8v-29.8h29.9V388.6z"/>
	<path class="st0" d="M66.6,357.3c-0.3-0.3-0.9-0.3-1.2,0c-0.3,0.3-0.3,0.9,0,1.2c0,0,0,0,0,0L97,390.1c0.4,0.3,0.9,0.3,1.2-0.1   c0.3-0.3,0.3-0.8,0-1.1L66.6,357.3z"/>
	<path class="st0" d="M97.6,293.8H65.9c-0.5,0-0.9,0.4-0.9,0.9v31.6c0,0.5,0.4,0.9,0.9,0.9h31.6c0.5,0,0.9-0.4,0.9-0.9v-31.6   C98.4,294.2,98,293.8,97.6,293.8L97.6,293.8z M96.7,325.4H66.8v-29.9h29.9V325.4z"/>
	<path class="st0" d="M66.6,294c-0.3-0.3-0.9-0.3-1.2,0c-0.3,0.3-0.3,0.9,0,1.2c0,0,0,0,0,0L97,326.9c0.4,0.3,0.9,0.3,1.2-0.1   c0.3-0.3,0.3-0.8,0-1.1L66.6,294z"/>
	<path class="st0" d="M97.6,325.4H65.9c-0.5,0-0.9,0.4-0.9,0.9v31.6c0,0.5,0.4,0.9,0.9,0.9h31.6c0.5,0,0.9-0.4,0.9-0.9v-31.6   C98.4,325.8,98,325.4,97.6,325.4z M96.7,357H66.8v-29.8h29.9V357z"/>
	<path class="st0" d="M66.6,325.7c-0.3-0.3-0.9-0.3-1.2,0c-0.3,0.3-0.3,0.9,0,1.2c0,0,0,0,0,0L97,358.5c0.4,0.3,0.9,0.3,1.2-0.1   c0.3-0.3,0.3-0.8,0-1.1L66.6,325.7z"/>
	<path class="st0" d="M97.6,104.1H65.9c-0.5,0-0.9,0.4-0.9,0.9v31.6c0,0.5,0.4,0.9,0.9,0.9h31.6c0.5,0,0.9-0.4,0.9-0.9V105   C98.5,104.5,98.1,104.1,97.6,104.1C97.6,104.1,97.6,104.1,97.6,104.1z M96.7,135.7H66.8v-29.9h29.9V135.7z"/>
	<path class="st0" d="M66.6,104.3c-0.3-0.3-0.9-0.3-1.2,0c-0.3,0.3-0.3,0.9,0,1.2c0,0,0,0,0,0L97,137.2c0.4,0.3,0.9,0.3,1.2-0.1   c0.3-0.3,0.3-0.8,0-1.1L66.6,104.3z"/>
	<path class="st0" d="M97.6,135.7H65.9c-0.5,0-0.9,0.4-0.9,0.9v31.6c0,0.5,0.4,0.9,0.9,0.9h31.6c0.5,0,0.9-0.4,0.9-0.9v-31.6   C98.4,136.1,98,135.7,97.6,135.7L97.6,135.7z M96.7,167.3H66.8v-29.9h29.9V167.3z"/>
	<path class="st0" d="M66.6,136c-0.3-0.3-0.9-0.3-1.2,0c-0.3,0.3-0.3,0.9,0,1.2c0,0,0,0,0,0L97,168.8c0.4,0.3,0.9,0.3,1.2-0.1   c0.3-0.3,0.3-0.8,0-1.1L66.6,136z"/>
	<path class="st0" d="M97.6,72.4H65.9c-0.5,0-0.9,0.4-0.9,0.9V105c0,0.5,0.4,0.9,0.9,0.9h31.6c0.5,0,0.9-0.4,0.9-0.9V73.3   C98.4,72.8,98,72.4,97.6,72.4z M96.7,104.1H66.8V74.2h29.9V104.1z"/>
	<path class="st0" d="M66.6,72.7c-0.3-0.3-0.9-0.3-1.2,0c-0.3,0.3-0.3,0.9,0,1.2c0,0,0,0,0,0L97,105.5c0.4,0.3,0.9,0.3,1.2-0.1   c0.3-0.3,0.3-0.8,0-1.1L66.6,72.7z"/>
	<rect x="48.7" y="389.5" class="st1" width="66.1" height="10.1"/>
	<path class="st2" d="M114.8,388.6H48.7c-0.5,0-0.9,0.4-0.9,0.9c0,0,0,0,0,0v10.1c0,0.5,0.4,0.9,0.9,0.9c0,0,0,0,0,0h66.1   c0.5,0,0.9-0.4,0.9-0.9c0,0,0,0,0,0v-10.1C115.7,389,115.3,388.6,114.8,388.6z M113.9,398.7H49.7v-8.3h64.3L113.9,398.7z"/>
	<rect x="41.4" y="399.6" class="st3" width="80.8" height="19.7"/>
	<path class="st0" d="M122.2,398.8H41.4c-0.5,0-0.9,0.4-0.9,0.8c0,0,0,0,0,0v19.7c0,0.5,0.4,0.9,0.9,0.9c0,0,0,0,0,0h80.8   c0.5,0,0.9-0.4,0.9-0.8c0,0,0,0,0,0v-19.7C123,399.2,122.6,398.8,122.2,398.8C122.2,398.8,122.2,398.8,122.2,398.8z M121.3,418.5   h-79v-18h79.1L121.3,418.5z"/>
	<path class="st0" d="M129.2,40.8H97.6c-0.5,0-0.9,0.4-0.9,0.9v31.6c0,0.5,0.4,0.9,0.9,0.9h31.6c0.5,0,0.9-0.4,0.9-0.9V41.7   C130.1,41.2,129.7,40.8,129.2,40.8z M128.3,72.4H98.4V42.6h29.9V72.4z"/>
	<path class="st0" d="M98.2,41.1c-0.3-0.3-0.9-0.3-1.2,0c-0.3,0.3-0.3,0.9,0,1.2c0,0,0,0,0,0l31.6,31.6c0.4,0.3,0.9,0.3,1.2-0.1   c0.3-0.3,0.3-0.8,0-1.1L98.2,41.1z"/>
	<path class="st0" d="M160.8,40.8h-31.6c-0.5,0-0.9,0.4-0.9,0.9v31.6c0,0.5,0.4,0.9,0.9,0.9h31.6c0.5,0,0.9-0.4,0.9-0.9V41.7   C161.7,41.2,161.3,40.8,160.8,40.8z M159.9,72.4h-29.9V42.6h29.9V72.4z"/>
	<path class="st0" d="M129.8,41.1c-0.3-0.3-0.9-0.3-1.2,0c-0.3,0.3-0.3,0.9,0,1.2c0,0,0,0,0,0l31.6,31.6c0.4,0.3,0.9,0.3,1.2-0.1   c0.3-0.3,0.3-0.8,0-1.1L129.8,41.1z"/>
	<path class="st0" d="M65.9,40.8H34.3c-0.5,0-0.9,0.4-0.9,0.9v31.6c0,0.5,0.4,0.9,0.9,0.9h31.6c0.5,0,0.9-0.4,0.9-0.9V41.7   C66.8,41.2,66.4,40.8,65.9,40.8C65.9,40.8,65.9,40.8,65.9,40.8z M65.1,72.4H35.2V42.6h29.9V72.4z"/>
	<path class="st0" d="M34.9,41.1c-0.3-0.3-0.9-0.3-1.2,0c-0.3,0.3-0.3,0.9,0,1.2c0,0,0,0,0,0l31.6,31.6c0.4,0.3,0.9,0.3,1.2-0.1   c0.3-0.3,0.3-0.8,0-1.1L34.9,41.1z"/>
	<path class="st0" d="M66.7,0.3c-0.2-0.4-0.7-0.6-1.2-0.4c-0.3,0.1-0.5,0.4-0.5,0.8v72.7c0,0.5,0.4,0.9,0.9,0.9h31.6   c0.5,0,0.9-0.4,0.9-0.9c0-0.1,0-0.2-0.1-0.3L66.7,0.3z M66.8,72.4V4.8l29.4,67.6H66.8z"/>
	<path class="st0" d="M34.7,40.9c-0.3-0.2-0.7-0.1-1,0.2L2.1,72.7c-0.3,0.3-0.3,0.9,0,1.2c0.2,0.2,0.4,0.2,0.6,0.2h31.6   c0.5,0,0.9-0.4,0.9-0.9V41.7C35.2,41.3,35,41,34.7,40.9z M33.5,72.4H4.8l28.7-28.7L33.5,72.4z"/>
	<path class="st0" d="M255.7,40.8H224c-0.5,0-0.9,0.4-0.9,0.9v31.6c0,0.5,0.4,0.9,0.9,0.9h31.6c0.5,0,0.9-0.4,0.9-0.9V41.7   C256.5,41.2,256.1,40.8,255.7,40.8z M254.8,72.4h-29.9V42.6h29.9L254.8,72.4z"/>
	<path class="st0" d="M224.7,41.1c-0.3-0.3-0.9-0.3-1.2,0c-0.3,0.3-0.3,0.9,0,1.2c0,0,0,0,0,0L255,73.9c0.4,0.3,0.9,0.3,1.2-0.1   c0.3-0.3,0.3-0.8,0-1.1L224.7,41.1z"/>
	<path class="st0" d="M192.4,40.8h-31.6c-0.5,0-0.9,0.4-0.9,0.9v31.6c0,0.5,0.4,0.9,0.9,0.9h31.6c0.5,0,0.9-0.4,0.9-0.9V41.7   C193.3,41.2,192.9,40.8,192.4,40.8z M191.6,72.4h-29.9V42.6h29.9L191.6,72.4z"/>
	<path class="st0" d="M161.4,41.1c-0.3-0.3-0.9-0.3-1.2,0c-0.3,0.3-0.3,0.9,0,1.2c0,0,0,0,0,0l31.6,31.6c0.4,0.3,0.9,0.3,1.2-0.1   c0.3-0.3,0.3-0.8,0-1.1L161.4,41.1z"/>
	<path class="st0" d="M224,40.8h-31.6c-0.5,0-0.9,0.4-0.9,0.9v31.6c0,0.5,0.4,0.9,0.9,0.9H224c0.5,0,0.9-0.4,0.9-0.9V41.7   C224.9,41.2,224.5,40.8,224,40.8z M223.2,72.4h-29.9V42.6h29.9L223.2,72.4z"/>
	<path class="st0" d="M193,41.1c-0.3-0.3-0.9-0.3-1.2,0c-0.3,0.3-0.3,0.9,0,1.2c0,0,0,0,0,0l31.6,31.6c0.4,0.3,0.9,0.3,1.2-0.1   c0.3-0.3,0.3-0.8,0-1.1L193,41.1z"/>
	<path class="st0" d="M256.3,41.1c-0.3-0.3-0.9-0.4-1.2,0c-0.2,0.2-0.3,0.4-0.3,0.6v31.6c0,0.5,0.4,0.9,0.9,0.9h31.6   c0.4,0,0.7-0.2,0.8-0.5c0.1-0.3,0.1-0.7-0.2-0.9L256.3,41.1z M256.5,72.4V43.8l28.7,28.7L256.5,72.4z"/>
	<path class="st0" d="M255.9,40.8L66.1-0.2c-0.3-0.1-0.7,0.1-0.9,0.3l-31.6,41c-0.3,0.4-0.2,0.9,0.2,1.2c0.4,0.3,0.9,0.2,1.2-0.2   c0,0,0,0,0,0L66.3,1.6l189.2,40.9h0.2c0.5,0,0.9-0.4,0.9-0.9C256.5,41.3,256.3,40.9,255.9,40.8L255.9,40.8z"/>
	
		<ellipse transform="matrix(0.1438 -0.9896 0.9896 0.1438 -231.3941 259.6013)" class="st1" cx="34.3" cy="263.5" rx="5.7" ry="5.7"/>
	<path class="st2" d="M34.3,256.9c-3.7,0-6.6,3-6.6,6.6s3,6.6,6.6,6.6c3.7,0,6.6-3,6.6-6.6C40.9,259.9,38,256.9,34.3,256.9z    M34.3,268.3c-2.6,0-4.8-2.1-4.7-4.8s2.1-4.8,4.8-4.8c2.6,0,4.8,2.1,4.8,4.8C39.1,266.2,37,268.3,34.3,268.3z"/>
	<rect x="133.4" y="85.5" class="st4" width="27.4" height="51.1"/>
	<path class="st0" d="M160.8,84.6h-27.4c-0.5,0-0.9,0.4-0.9,0.9v51.1c0,0.5,0.4,0.9,0.9,0.9h27.4c0.5,0,0.9-0.4,0.9-0.9V85.5   C161.7,85,161.3,84.6,160.8,84.6z M159.9,135.6h-25.7V86.4h25.7L159.9,135.6z"/>
</g>
</svg>