<?xml version="1.0" encoding="UTF-8"?>
<!-- Generator: Adobe Illustrator 22.1.0, SVG Export Plug-In . SVG Version: 6.00 Build 0)  -->
<svg version="1.1" id="Capa_1" xmlns="http://www.w3.org/2000/svg" xmlns:xlink="http://www.w3.org/1999/xlink" x="0px" y="0px" viewBox="0 0 85 140" style="enable-background:new 0 0 85 140;" xml:space="preserve">
<style type="text/css">
	.st0{fill:#F9EAC5;}
	.st1{fill:#B58E12;}
	.st2{fill:#CC9D00;}
	.st3{fill:none;}
</style>
<title>Mesa de trabajo 2</title>
<g id="pendulo">
	<rect x="1.9" y="100.6" class="st0" width="81.1" height="36"/>
	<path class="st1" d="M83,99.7H1.9c-0.5,0-0.9,0.4-0.9,0.9l0,0v36c0,0.5,0.4,0.9,0.9,0.9H83c0.5,0,0.9-0.4,0.9-0.9v-36   C84,100.1,83.6,99.7,83,99.7z M82.1,135.6H2.9v-34.1h79.2L82.1,135.6z"/>
	<path class="st2" d="M42.5,2.5c-0.5,0-0.9,0.4-0.9,0.9v81.5c0,0.5,0.4,0.9,0.9,0.9c0.5,0,0.9-0.4,0.9-0.9V3.4   C43.4,2.9,43,2.5,42.5,2.5L42.5,2.5z"/>
	<line class="st3" x1="1.9" y1="100.6" x2="42.5" y2="87.8"/>
	<path class="st1" d="M42.3,86.9L1.7,99.7c-0.5,0.1-0.8,0.7-0.6,1.1c0,0,0,0,0,0c0.1,0.4,0.5,0.7,0.9,0.6c0.1,0,0.2,0,0.3,0   l40.5-12.8c0.5-0.2,0.8-0.7,0.6-1.2C43.3,87.1,42.8,86.8,42.3,86.9C42.3,86.9,42.3,86.9,42.3,86.9z"/>
	<line class="st3" x1="83" y1="100.6" x2="42.5" y2="87.8"/>
	<path class="st1" d="M83.3,99.7L42.8,86.9c-0.5-0.2-1,0.1-1.2,0.6c0,0,0,0,0,0c-0.2,0.5,0.1,1,0.6,1.2c0,0,0,0,0,0l40.5,12.8   c0.1,0,0.2,0,0.3,0c0.5,0,0.9-0.4,0.9-0.9C84,100.2,83.7,99.8,83.3,99.7L83.3,99.7z"/>
	<path class="st0" d="M42.5,80.6L42.5,80.6c-2.5,0-4.5,2-4.5,4.5v5.3c0,2.5,2,4.5,4.5,4.5c0,0,0,0,0,0l0,0c2.5,0,4.5-2,4.5-4.5   c0,0,0,0,0,0v-5.3C47,82.7,45,80.6,42.5,80.6z"/>
	<path class="st1" d="M42.5,79.7c-3,0-5.5,2.5-5.5,5.5v5.3c0,3,2.4,5.5,5.5,5.5s5.5-2.4,5.5-5.5v-5.3C48,82.1,45.5,79.7,42.5,79.7z    M46.1,90.5c0,2-1.6,3.6-3.6,3.6s-3.6-1.6-3.6-3.6v-5.3c0-2,1.6-3.6,3.6-3.6s3.6,1.6,3.6,3.6V90.5z"/>
</g>
</svg>